<?xml version="1.0" encoding="UTF-8"?>
<svg width="800" height="256" version="1.1" viewBox="0 0 211.67 67.733" xmlns="http://www.w3.org/2000/svg" xmlns:cc="http://creativecommons.org/ns#" xmlns:dc="http://purl.org/dc/elements/1.1/" xmlns:rdf="http://www.w3.org/1999/02/22-rdf-syntax-ns#">
 <metadata>
  <rdf:RDF>
   <cc:Work rdf:about="">
    <dc:format>image/svg+xml</dc:format>
    <dc:type rdf:resource="http://purl.org/dc/dcmitype/StillImage"/>
    <dc:title/>
   </cc:Work>
  </rdf:RDF>
 </metadata>
 <g transform="translate(0 -229.27)">
  <g transform="matrix(1.0356 0 0 1.0344 -1.2067 228.09)">
   <g stroke="#f9f9f9">
    <circle cx="33.876" cy="33.857" r="30.317" fill="#f9f9f9" stroke="#f9f9f9" stroke-width=".71035"/>
   </g>
   <g stroke="#fc0">
    <path d="m16.158 37.042 50.129-35.596-29.246 29.246h14.533l-50.129 35.596 29.246-29.246h-14.533" fill="#fc0" stroke="#fc0" stroke-width=".79375"/>
   </g>
   <g display="none">
    <path d="m16.158 37.042 50.129-35.596-29.246 29.246h14.533l-50.129 35.596 29.246-29.246h-14.533" stroke="#000" stroke-width=".79375"/>
   </g>
  </g>
  <g transform="matrix(.35945 0 0 .387 -22.086 242.35)" fill="#f9f9f9" style="font-feature-settings:normal;font-variant-caps:normal;font-variant-ligatures:normal;font-variant-numeric:normal" aria-label="RAPAT">
   <path d="m302.95 40.384q0-2.625-1.0781-4.5-1.0781-1.875-3.7031-2.9531-1.8281-0.75-4.2656-0.89062-2.4375-0.1875-5.6719-0.1875h-6.5156v18.797h5.5312q4.3125 0 7.2188-0.42188t4.875-1.9219q1.875-1.4531 2.7188-3.1875 0.89063-1.7812 0.89063-4.7344zm28.078 48.422h-21.984l-19.031-25.594h-8.2969v25.594h-17.906v-69.797h30.188q6.1875 0 10.641 0.70312 4.4531 0.70312 8.3438 3.0469 3.9375 2.3438 6.2344 6.0938 2.3438 3.7031 2.3438 9.3281 0 7.7344-3.6094 12.609-3.5625 4.875-10.219 8.1094z" style="font-feature-settings:normal;font-variant-caps:normal;font-variant-ligatures:normal;font-variant-numeric:normal"/>
   <path d="m403.4 88.806h-18.609l-4.8281-14.109h-25.875l-4.8281 14.109h-18.141l25.781-69.797h20.719zm-27.797-26.906-8.5781-25.031-8.5781 25.031z" style="font-feature-settings:normal;font-variant-caps:normal;font-variant-ligatures:normal;font-variant-numeric:normal"/>
   <path d="m471.04 41.041q0 4.6875-1.6406 9.1875-1.6406 4.4531-4.6875 7.5-4.1719 4.125-9.3281 6.2344-5.1094 2.1094-12.75 2.1094h-11.203v22.734h-18v-69.797h29.625q6.6562 0 11.203 1.1719 4.5938 1.125 8.1094 3.4219 4.2188 2.7656 6.4219 7.0781 2.25 4.3125 2.25 10.359zm-18.609 0.42188q0-2.9531-1.5938-5.0625-1.5938-2.1562-3.7031-3-2.8125-1.125-5.4844-1.2188-2.6719-0.14062-7.125-0.14062h-3.0938v20.906h5.1562q4.5938 0 7.5469-0.5625 3-0.5625 5.0156-2.25 1.7344-1.5 2.4844-3.5625 0.79687-2.1094 0.79687-5.1094z" style="font-feature-settings:normal;font-variant-caps:normal;font-variant-ligatures:normal;font-variant-numeric:normal"/>
   <path d="m548.29 88.806h-18.609l-4.8281-14.109h-25.875l-4.8281 14.109h-18.141l25.781-69.797h20.719zm-27.797-26.906-8.5781-25.031-8.5781 25.031z" style="font-feature-settings:normal;font-variant-caps:normal;font-variant-ligatures:normal;font-variant-numeric:normal"/>
   <path d="m612.93 32.509h-21.797v56.297h-18v-56.297h-21.797v-13.5h61.594z" style="font-feature-settings:normal;font-variant-caps:normal;font-variant-ligatures:normal;font-variant-numeric:normal"/>
  </g>
  <text x="199.89362" y="248.67551" fill="#f9f9f9" font-family="sans-serif" font-size="8.3874px" letter-spacing="0px" stroke-width=".44933" word-spacing="0px" style="font-feature-settings:normal;font-variant-caps:normal;font-variant-ligatures:normal;font-variant-numeric:normal;line-height:1.25" xml:space="preserve"><tspan x="199.89362" y="248.67551" fill="#f9f9f9" stroke-width=".44933">®</tspan></text>
 </g>
</svg>
